#!OML:ASF F:\VICON\USERDATA\INSTALL\rory3\rory3.ASF
:FULLY-SPECIFIED
:DEGREES
1030
root 3.59663 23.8321 1.09551 -171.046 -19.327 176.619
lowerback 16.5959 -1.68448 -5.55569
upperback 2.63764 -3.41659 1.61966
thorax -6.04528 -1.67759 5.62684
lowerneck -15.347 2.41218 -12.8875
upperneck 39.3699 2.96458 1.97926
head 16.541 -1.73779 3.29841
rclavicle -2.20651e-014 3.18055e-015
rhumerus 10.4426 30.1547 -75.2806
rradius 81.2688
rwrist 49.0686
rhand -24.6027 -6.06469
rfingers 7.12502
rthumb 1.89531 -36.036
lclavicle -2.20651e-014 3.18055e-015
lhumerus 54.5278 -14.0158 60.1081
lradius 59.5838
lwrist -16.2461
lhand -28.0021 31.8199
lfingers 7.12502
lthumb -1.38798 61.7951
rfemur -17.2395 -4.53314 24.2177
rtibia 12.0747
rfoot 0.284458 -9.12995
rtoes 17.0512
lfemur -65.1925 15.0028 -19.884
ltibia 103.897
lfoot -1.05104 -6.95116
ltoes -11.9163
1031
root 3.58556 23.8146 1.10613 -171.191 -19.1072 176.528
lowerback 16.5865 -1.75385 -5.55823
upperback 2.6712 -3.50413 1.76988
thorax -5.98247 -1.72557 5.80594
lowerneck -15.6703 2.53365 -13.6678
upperneck 39.6173 3.27722 2.4139
head 16.691 -1.69798 3.68782
rclavicle 9.24349e-015 -2.78299e-015
rhumerus 10.9184 30.7085 -75.0599
rradius 81.0258
rwrist 48.9415
rhand -24.4272 -6.10234
rfingers 7.12502
rthumb 2.06475 -36.0721
lclavicle 9.24349e-015 -2.78299e-015
lhumerus 52.8195 -13.6726 61.2068
lradius 60.8167
lwrist -15.9245
lhand -30.3613 31.8115
lfingers 7.12502
lthumb -3.66633 61.7597
rfemur -17.7379 -4.56284 24.1415
rtibia 13.332
rfoot -0.139484 -8.87269
rtoes 16.9015
lfemur -63.6407 14.664 -19.43
ltibia 103.157
lfoot 0.218631 -6.51511
ltoes -11.6175
1032
root 3.56925 23.7911 1.11592 -171.207 -18.9432 176.435
lowerback 16.4352 -1.86582 -5.4615
upperback 2.65513 -3.61818 1.88751
thorax -5.89971 -1.78512 5.89069
lowerneck -15.6016 2.65984 -13.7886
upperneck 39.5893 3.56064 2.18723
head 16.6373 -1.64061 3.64764
rclavicle 6.36111e-015 -6.75868e-015
rhumerus 11.2825 31.1822 -74.9251
rradius 80.8147
rwrist 48.7982
rhand -24.3041 -6.07042
rfingers 7.12502
rthumb 2.18367 -36.039
lclavicle 6.36111e-015 -6.75868e-015
lhumerus 50.894 -13.3724 62.4104
lradius 62.3446
lwrist -15.6944
lhand -30.181 31.349
lfingers 7.12502
lthumb -3.49227 61.3001
rfemur -18.3291 -4.63465 24.0522
rtibia 14.5404
rfoot -0.547745 -8.56107
rtoes 15.3199
lfemur -62.2273 14.1598 -19.0451
ltibia 102.276
lfoot 1.54255 -6.14393
ltoes -11.0934
1033
root 3.5512 23.7699 1.12904 -171.193 -18.7562 176.257
lowerback 16.2977 -1.90038 -5.38021
upperback 2.65792 -3.63839 1.95051
thorax -5.81977 -1.79973 5.9067
lowerneck -15.5044 2.67171 -13.935
upperneck 39.4719 3.64342 2.10417
head 16.5447 -1.63122 3.64364
rclavicle -7.95139e-016 0
rhumerus 11.6293 31.3574 -74.7798
rradius 80.5931
rwrist 48.8222
rhand -24.0733 -5.94242
rfingers 7.12502
rthumb 2.40652 -35.9086
lclavicle -7.95139e-016 0
lhumerus 48.9575 -13.1926 63.7961
lradius 63.9439
lwrist -15.9945
lhand -27.4419 30.247
lfingers 7.12502
lthumb -0.846853 60.2251
rfemur -18.8794 -4.55811 23.7879
rtibia 15.6893
rfoot -1.20509 -8.40568
rtoes 14.5645
lfemur -60.8359 13.591 -18.8169
ltibia 101.208
lfoot 3.06449 -5.92124
ltoes -11.0116
1034
root 3.53599 23.7524 1.14388 -171.239 -18.5057 176.099
lowerback 16.242 -1.81556 -5.29847
upperback 2.71113 -3.51385 1.94842
thorax -5.75466 -1.74662 5.82783
lowerneck -15.4694 2.62959 -13.7194
upperneck 39.2995 3.62849 1.87503
head 16.4624 -1.61299 3.50045
rclavicle 2.04748e-014 1.15295e-014
rhumerus 12.0411 31.2043 -74.6858
rradius 80.3214
rwrist 48.8184
rhand -23.7815 -5.87224
rfingers 7.12502
rthumb 2.68842 -35.835
lclavicle 2.04748e-014 1.15295e-014
lhumerus 47.1955 -13.2709 64.9751
lradius 65.7046
lwrist -16.1906
lhand -35.9155 31.2609
lfingers 7.12502
lthumb -9.02823 61.0477
rfemur -19.4004 -4.28195 23.5106
rtibia 16.8509
rfoot -1.92683 -8.36459
rtoes 14.4336
lfemur -59.3778 13.0543 -18.5825
ltibia 99.9642
lfoot 4.53825 -5.88647
ltoes -11.5
1035
root 3.5176 23.7203 1.15632 -171.263 -18.3044 176.082
lowerback 16.1036 -1.66656 -5.04389
upperback 2.78793 -3.27381 1.87919
thorax -5.64809 -1.64211 5.54976
lowerneck -15.5464 2.50544 -12.9673
upperneck 39.2776 3.38866 1.47082
head 16.5259 -1.64549 3.15591
rclavicle 4.8901e-014 -2.22639e-014
rhumerus 12.3859 30.6757 -74.7629
rradius 80.0165
rwrist 48.9404
rhand -23.6537 -5.78325
rfingers 7.12502
rthumb 2.81182 -35.7445
lclavicle 4.8901e-014 -2.22639e-014
lhumerus 45.6038 -13.6984 65.8962
lradius 67.691
lwrist -15.7519
lhand -37.4993 30.4009
lfingers 7.12502
lthumb -10.5563 60.1158
rfemur -19.9883 -4.04504 23.3929
rtibia 18.0677
rfoot -2.74612 -8.19344
rtoes 15.8152
lfemur -58.0419 12.5227 -18.2846
ltibia 98.6609
lfoot 5.91668 -5.84277
ltoes -11.992
1036
root 3.49964 23.6797 1.1687 -171.197 -18.1111 175.992
lowerback 15.9326 -1.61695 -4.86483
upperback 2.81195 -3.1707 1.84825
thorax -5.55418 -1.59883 5.38312
lowerneck -15.6246 2.45832 -12.6845
upperneck 39.2654 3.30188 1.35469
head 16.5567 -1.64898 3.04402
rclavicle -3.00165e-014 1.51076e-014
rhumerus 12.787 30.4411 -74.7849
rradius 79.761
rwrist 49.0906
rhand -23.4272 -5.62101
rfingers 7.12502
rthumb 3.03051 -35.5792
lclavicle -3.00165e-014 1.51076e-014
lhumerus 43.7607 -13.8457 66.8792
lradius 69.7214
lwrist -15.0908
lhand -38.5436 28.6876
lfingers 7.12502
lthumb -11.5636 58.3486
rfemur -20.6487 -3.80351 23.2078
rtibia 19.3331
rfoot -3.58263 -7.97872
rtoes 17.0561
lfemur -56.7711 11.9812 -18.1232
ltibia 97.2395
lfoot 7.29637 -5.8713
ltoes -11.6893
